#!OML:ASF F:\VICON\USERDATA\INSTALL\rory3\rory3.ASF
:FULLY-SPECIFIED
:DEGREES
875
root -1.31961 23.7883 1.72417 -2.18817 -0.300735 0.962838
lowerback 2.75741 -0.0346918 -1.52099
upperback 2.06541 -0.0834601 2.85441
thorax 0.580941 -0.0763163 3.79198
lowerneck -10.6029 2.70826 -8.90999
upperneck 43.6461 7.21803 -0.276309
head 17.7514 1.46674 2.71392
rclavicle 6.06293e-015 -1.19271e-014
rhumerus -30.12 -5.34703 -77.8717
rradius 39.1618
rwrist 19.1653
rhand -20.9993 1.86014
rfingers 7.12502
rthumb 5.37502 -28.0517
lclavicle 6.06293e-015 -1.19271e-014
lhumerus -36.0466 12.1244 79.1256
lradius 29.2123
lwrist -6.12532
lhand -13.3151 26.2272
lfingers 7.12502
lthumb 12.7894 55.8154
rfemur -15.4292 -4.95384 27.0563
rtibia 53.3368
rfoot -27.6624 6.92674
rtoes 10.2695
lfemur -19.4276 0.537735 -20.5242
ltibia 17.9554
lfoot 21.689 -2.18362
ltoes -22.4105
876
root -1.31845 23.7426 1.77048 -2.17254 -0.260363 0.946171
lowerback 2.58827 -0.0931473 -1.57654
upperback 2.0429 -0.162099 2.90566
thorax 0.659088 -0.117513 3.87781
lowerneck -10.5829 2.71392 -8.93212
upperneck 43.6301 7.22463 -0.2747
head 17.7352 1.46683 2.71801
rclavicle 2.33572e-015 -6.36111e-015
rhumerus -30.3095 -5.55469 -77.7459
rradius 39.373
rwrist 18.9894
rhand -20.5284 2.00776
rfingers 7.12502
rthumb 5.82964 -27.892
lclavicle 2.33572e-015 -6.36111e-015
lhumerus -36.0054 12.3826 78.9868
lradius 28.9222
lwrist -6.29716
lhand -13.2938 26.3002
lfingers 7.12502
lthumb 12.81 55.8871
rfemur -15.8479 -5.19463 27.0764
rtibia 54.277
rfoot -28.1282 6.95408
rtoes 8.46839
lfemur -18.8214 0.183098 -20.4819
ltibia 17.0372
lfoot 21.6537 -1.80712
ltoes -22.3689
877
root -1.31811 23.6836 1.81534 -2.19583 -0.223707 0.933589
lowerback 2.3882 -0.11048 -1.65284
upperback 2.07813 -0.186933 2.95611
thorax 0.809987 -0.13388 3.97327
lowerneck -10.5368 2.66235 -9.10411
upperneck 43.5525 7.12575 -0.152927
head 17.6662 1.42133 2.78359
rclavicle 8.00108e-015 3.18055e-015
rhumerus -30.4412 -5.71392 -77.6172
rradius 39.4949
rwrist 18.522
rhand -20.7114 2.53805
rfingers 7.12502
rthumb 5.65302 -27.3665
lclavicle 8.00108e-015 3.18055e-015
lhumerus -35.8972 12.5685 78.8984
lradius 28.731
lwrist -6.53642
lhand -12.9836 26.4433
lfingers 7.12502
lthumb 13.109 56.0113
rfemur -16.0932 -5.40573 27.0968
rtibia 55.1889
rfoot -28.6077 7.02483
rtoes 7.36667
lfemur -18.2587 -0.128408 -20.4563
ltibia 16.2087
lfoot 21.6963 -1.58359
ltoes -22.5846
878
root -1.31709 23.6194 1.86142 -2.27807 -0.162683 0.946237
lowerback 2.39002 -0.127688 -1.71554
upperback 2.02834 -0.210128 2.96365
thorax 0.76008 -0.144851 4.01703
lowerneck -10.4961 2.62308 -9.17608
upperneck 43.6199 7.02409 -0.0115844
head 17.6875 1.38396 2.84544
rclavicle -4.91992e-015 1.03368e-014
rhumerus -30.7221 -5.78439 -77.5377
rradius 39.7299
rwrist 18.1523
rhand -20.7562 2.4313
rfingers 7.12502
rthumb 5.60973 -27.4744
lclavicle -4.91992e-015 1.03368e-014
lhumerus -35.8969 12.7005 78.7368
lradius 28.4644
lwrist -6.82093
lhand -12.5538 26.3424
lfingers 7.12502
lthumb 13.5233 55.8833
rfemur -16.1304 -5.53617 27.0883
rtibia 56.0414
rfoot -29.1435 7.28647
rtoes 8.03456
lfemur -17.7151 -0.293805 -20.5078
ltibia 15.5394
lfoot 21.6626 -1.53104
ltoes -23.0663
879
root -1.31687 23.5629 1.90696 -2.3247 -0.142422 0.924473
lowerback 2.37364 -0.171278 -1.78151
upperback 1.98165 -0.268759 2.99794
thorax 0.726786 -0.174074 4.09099
lowerneck -10.5176 2.62352 -9.20324
upperneck 43.6947 7.00631 0.0664024
head 17.7315 1.37681 2.88625
rclavicle -4.96962e-017 3.18055e-015
rhumerus -31.0338 -5.72618 -77.5352
rradius 40.141
rwrist 17.8516
rhand -20.6482 1.95763
rfingers 7.12502
rthumb 5.71404 -27.9453
lclavicle -4.96962e-017 3.18055e-015
lhumerus -35.9691 13.0411 78.5203
lradius 28.3141
lwrist -7.04696
lhand -12.3781 26.414
lfingers 7.12502
lthumb 13.6926 55.9435
rfemur -16.2494 -5.62367 27.1307
rtibia 56.854
rfoot -29.5349 7.54738
rtoes 9.3143
lfemur -17.2799 -0.456201 -20.5059
ltibia 15.0803
lfoot 21.6231 -1.47949
ltoes -23.6159
880
root -1.31645 23.5065 1.94968 -2.42774 -0.193388 0.885503
lowerback 2.41847 -0.201307 -1.85321
upperback 1.99469 -0.310703 3.05905
thorax 0.719656 -0.196426 4.19613
lowerneck -10.6164 2.63714 -9.28079
upperneck 43.7068 7.0139 0.178227
head 17.7516 1.37882 2.95616
rclavicle 7.30534e-015 3.10104e-014
rhumerus -31.2635 -5.61914 -77.5294
rradius 40.5124
rwrist 17.6771
rhand -20.6654 1.76374
rfingers 7.12502
rthumb 5.69738 -28.1397
lclavicle 7.30534e-015 3.10104e-014
lhumerus -35.9708 13.3253 78.3872
lradius 28.1667
lwrist -7.04928
lhand -12.5867 26.315
lfingers 7.12502
lthumb 13.4916 55.8579
rfemur -16.3391 -5.63806 27.1945
rtibia 57.6409
rfoot -29.8012 7.67879
rtoes 9.95719
lfemur -16.8268 -0.728817 -20.4243
ltibia 14.6942
lfoot 21.6717 -1.12244
ltoes -23.6555
881
root -1.31599 23.4497 1.99272 -2.42032 -0.172548 0.826768
lowerback 2.34285 -0.240104 -1.90042
upperback 1.98418 -0.363051 3.11385
thorax 0.756651 -0.224058 4.28039
lowerneck -10.7376 2.63488 -9.29121
upperneck 43.6879 7.02998 0.172678
head 17.7712 1.38057 2.96168
rclavicle -5.46658e-016 -2.38542e-015
rhumerus -31.373 -5.63975 -77.4958
rradius 40.687
rwrist 17.7657
rhand -20.785 1.44859
rfingers 7.12502
rthumb 5.58192 -28.4579
lclavicle -5.46658e-016 -2.38542e-015
lhumerus -35.9741 13.4882 78.282
lradius 28.0345
lwrist -6.94459
lhand -12.797 26.2237
lfingers 7.12502
lthumb 13.2889 55.78
rfemur -16.5164 -5.65546 27.2896
rtibia 58.4291
rfoot -30.1659 7.70631
rtoes 10.2251
lfemur -16.474 -0.873736 -20.3661
ltibia 14.2514
lfoot 21.866 -0.984522
ltoes -23.5962
